<mxfile host="app.diagrams.net" agent="Mozilla/5.0 (Windows NT 10.0; Win64; x64) AppleWebKit/537.36 (KHTML, like Gecko) Chrome/134.0.0.0 Safari/537.36" version="26.1.1">
  <diagram name="第 1 页" id="KJRlGJrqPSsaSKNVdlFr">
    <mxGraphModel dx="2800" dy="2543" grid="1" gridSize="10" guides="1" tooltips="1" connect="1" arrows="1" fold="1" page="1" pageScale="1" pageWidth="827" pageHeight="1169" math="0" shadow="0">
      <root>
        <mxCell id="0" />
        <mxCell id="1" parent="0" />
        <mxCell id="sG7_oZuIjh9oJY-q4shb-1" value="&lt;font style=&quot;font-size: 18px;&quot;&gt;本地特色&lt;/font&gt;" style="rounded=0;whiteSpace=wrap;html=1;" vertex="1" parent="1">
          <mxGeometry x="330" y="200" width="120" height="60" as="geometry" />
        </mxCell>
        <mxCell id="sG7_oZuIjh9oJY-q4shb-2" value="&lt;font style=&quot;font-size: 18px;&quot;&gt;美食名称&lt;/font&gt;" style="ellipse;whiteSpace=wrap;html=1;" vertex="1" parent="1">
          <mxGeometry x="120" y="-20" width="120" height="80" as="geometry" />
        </mxCell>
        <mxCell id="sG7_oZuIjh9oJY-q4shb-4" value="" style="endArrow=none;html=1;rounded=0;entryX=1;entryY=1;entryDx=0;entryDy=0;exitX=0.5;exitY=0;exitDx=0;exitDy=0;" edge="1" parent="1" source="sG7_oZuIjh9oJY-q4shb-1" target="sG7_oZuIjh9oJY-q4shb-2">
          <mxGeometry width="50" height="50" relative="1" as="geometry">
            <mxPoint x="390" y="180" as="sourcePoint" />
            <mxPoint x="440" y="130" as="targetPoint" />
          </mxGeometry>
        </mxCell>
        <mxCell id="sG7_oZuIjh9oJY-q4shb-5" value="" style="endArrow=none;html=1;rounded=0;entryX=0.5;entryY=1;entryDx=0;entryDy=0;exitX=0.5;exitY=0;exitDx=0;exitDy=0;" edge="1" parent="1" source="sG7_oZuIjh9oJY-q4shb-1" target="sG7_oZuIjh9oJY-q4shb-8">
          <mxGeometry width="50" height="50" relative="1" as="geometry">
            <mxPoint x="400" y="210" as="sourcePoint" />
            <mxPoint x="300" y="10" as="targetPoint" />
          </mxGeometry>
        </mxCell>
        <mxCell id="sG7_oZuIjh9oJY-q4shb-6" value="" style="endArrow=none;html=1;rounded=0;exitX=0.5;exitY=0;exitDx=0;exitDy=0;entryX=0.5;entryY=1;entryDx=0;entryDy=0;" edge="1" parent="1" source="sG7_oZuIjh9oJY-q4shb-1" target="sG7_oZuIjh9oJY-q4shb-9">
          <mxGeometry width="50" height="50" relative="1" as="geometry">
            <mxPoint x="580" y="160" as="sourcePoint" />
            <mxPoint x="390" y="-10" as="targetPoint" />
          </mxGeometry>
        </mxCell>
        <mxCell id="sG7_oZuIjh9oJY-q4shb-8" value="&lt;font style=&quot;font-size: 18px;&quot;&gt;美食图片&lt;/font&gt;" style="ellipse;whiteSpace=wrap;html=1;" vertex="1" parent="1">
          <mxGeometry x="240" y="-90" width="120" height="80" as="geometry" />
        </mxCell>
        <mxCell id="sG7_oZuIjh9oJY-q4shb-9" value="&lt;font style=&quot;font-size: 18px;&quot;&gt;美食介绍&lt;/font&gt;" style="ellipse;whiteSpace=wrap;html=1;" vertex="1" parent="1">
          <mxGeometry x="390" y="-90" width="120" height="80" as="geometry" />
        </mxCell>
        <mxCell id="sG7_oZuIjh9oJY-q4shb-10" value="&lt;font style=&quot;font-size: 18px;&quot;&gt;美食详情&lt;/font&gt;" style="ellipse;whiteSpace=wrap;html=1;" vertex="1" parent="1">
          <mxGeometry x="520" y="-30" width="120" height="80" as="geometry" />
        </mxCell>
        <mxCell id="sG7_oZuIjh9oJY-q4shb-11" value="" style="endArrow=none;html=1;rounded=0;exitX=0.5;exitY=0;exitDx=0;exitDy=0;entryX=0.5;entryY=1;entryDx=0;entryDy=0;" edge="1" parent="1" source="sG7_oZuIjh9oJY-q4shb-1" target="sG7_oZuIjh9oJY-q4shb-10">
          <mxGeometry width="50" height="50" relative="1" as="geometry">
            <mxPoint x="400" y="210" as="sourcePoint" />
            <mxPoint x="410" y="-10" as="targetPoint" />
          </mxGeometry>
        </mxCell>
        <mxCell id="sG7_oZuIjh9oJY-q4shb-12" value="&lt;font style=&quot;font-size: 18px;&quot;&gt;聊天&lt;/font&gt;" style="rounded=0;whiteSpace=wrap;html=1;" vertex="1" parent="1">
          <mxGeometry x="340" y="630" width="120" height="60" as="geometry" />
        </mxCell>
        <mxCell id="sG7_oZuIjh9oJY-q4shb-13" value="&lt;font style=&quot;font-size: 18px;&quot;&gt;管理员ID&lt;/font&gt;" style="ellipse;whiteSpace=wrap;html=1;" vertex="1" parent="1">
          <mxGeometry x="130" y="410" width="120" height="80" as="geometry" />
        </mxCell>
        <mxCell id="sG7_oZuIjh9oJY-q4shb-14" value="" style="endArrow=none;html=1;rounded=0;entryX=1;entryY=1;entryDx=0;entryDy=0;exitX=0.5;exitY=0;exitDx=0;exitDy=0;" edge="1" parent="1" source="sG7_oZuIjh9oJY-q4shb-12" target="sG7_oZuIjh9oJY-q4shb-13">
          <mxGeometry width="50" height="50" relative="1" as="geometry">
            <mxPoint x="400" y="610" as="sourcePoint" />
            <mxPoint x="450" y="560" as="targetPoint" />
          </mxGeometry>
        </mxCell>
        <mxCell id="sG7_oZuIjh9oJY-q4shb-15" value="" style="endArrow=none;html=1;rounded=0;entryX=0.5;entryY=1;entryDx=0;entryDy=0;exitX=0.5;exitY=0;exitDx=0;exitDy=0;" edge="1" parent="1" source="sG7_oZuIjh9oJY-q4shb-12" target="sG7_oZuIjh9oJY-q4shb-17">
          <mxGeometry width="50" height="50" relative="1" as="geometry">
            <mxPoint x="410" y="640" as="sourcePoint" />
            <mxPoint x="310" y="440" as="targetPoint" />
          </mxGeometry>
        </mxCell>
        <mxCell id="sG7_oZuIjh9oJY-q4shb-16" value="" style="endArrow=none;html=1;rounded=0;exitX=0.5;exitY=0;exitDx=0;exitDy=0;entryX=0.5;entryY=1;entryDx=0;entryDy=0;" edge="1" parent="1" source="sG7_oZuIjh9oJY-q4shb-12" target="sG7_oZuIjh9oJY-q4shb-18">
          <mxGeometry width="50" height="50" relative="1" as="geometry">
            <mxPoint x="590" y="590" as="sourcePoint" />
            <mxPoint x="400" y="420" as="targetPoint" />
          </mxGeometry>
        </mxCell>
        <mxCell id="sG7_oZuIjh9oJY-q4shb-17" value="&lt;font style=&quot;font-size: 18px;&quot;&gt;提问内容&lt;/font&gt;" style="ellipse;whiteSpace=wrap;html=1;" vertex="1" parent="1">
          <mxGeometry x="250" y="340" width="120" height="80" as="geometry" />
        </mxCell>
        <mxCell id="sG7_oZuIjh9oJY-q4shb-18" value="&lt;font style=&quot;font-size: 18px;&quot;&gt;回复内容&lt;/font&gt;" style="ellipse;whiteSpace=wrap;html=1;" vertex="1" parent="1">
          <mxGeometry x="400" y="340" width="120" height="80" as="geometry" />
        </mxCell>
        <mxCell id="sG7_oZuIjh9oJY-q4shb-19" value="&lt;font style=&quot;font-size: 18px;&quot;&gt;用户ID&lt;/font&gt;" style="ellipse;whiteSpace=wrap;html=1;" vertex="1" parent="1">
          <mxGeometry x="530" y="400" width="120" height="80" as="geometry" />
        </mxCell>
        <mxCell id="sG7_oZuIjh9oJY-q4shb-20" value="" style="endArrow=none;html=1;rounded=0;exitX=0.5;exitY=0;exitDx=0;exitDy=0;entryX=0.5;entryY=1;entryDx=0;entryDy=0;" edge="1" parent="1" source="sG7_oZuIjh9oJY-q4shb-12" target="sG7_oZuIjh9oJY-q4shb-19">
          <mxGeometry width="50" height="50" relative="1" as="geometry">
            <mxPoint x="410" y="640" as="sourcePoint" />
            <mxPoint x="420" y="420" as="targetPoint" />
          </mxGeometry>
        </mxCell>
        <mxCell id="sG7_oZuIjh9oJY-q4shb-21" value="&lt;font style=&quot;font-size: 18px;&quot;&gt;烹饪&lt;/font&gt;" style="rounded=0;whiteSpace=wrap;html=1;" vertex="1" parent="1">
          <mxGeometry x="350" y="1050" width="120" height="60" as="geometry" />
        </mxCell>
        <mxCell id="sG7_oZuIjh9oJY-q4shb-22" value="&lt;font style=&quot;font-size: 18px;&quot;&gt;美食名称&lt;/font&gt;" style="ellipse;whiteSpace=wrap;html=1;" vertex="1" parent="1">
          <mxGeometry x="40" y="890" width="120" height="80" as="geometry" />
        </mxCell>
        <mxCell id="sG7_oZuIjh9oJY-q4shb-23" value="" style="endArrow=none;html=1;rounded=0;entryX=1;entryY=1;entryDx=0;entryDy=0;exitX=0.5;exitY=0;exitDx=0;exitDy=0;" edge="1" parent="1" source="sG7_oZuIjh9oJY-q4shb-21" target="sG7_oZuIjh9oJY-q4shb-22">
          <mxGeometry width="50" height="50" relative="1" as="geometry">
            <mxPoint x="410" y="1030" as="sourcePoint" />
            <mxPoint x="460" y="980" as="targetPoint" />
          </mxGeometry>
        </mxCell>
        <mxCell id="sG7_oZuIjh9oJY-q4shb-24" value="" style="endArrow=none;html=1;rounded=0;entryX=0.5;entryY=1;entryDx=0;entryDy=0;exitX=0.5;exitY=0;exitDx=0;exitDy=0;" edge="1" parent="1" source="sG7_oZuIjh9oJY-q4shb-21" target="sG7_oZuIjh9oJY-q4shb-26">
          <mxGeometry width="50" height="50" relative="1" as="geometry">
            <mxPoint x="420" y="1060" as="sourcePoint" />
            <mxPoint x="320" y="860" as="targetPoint" />
          </mxGeometry>
        </mxCell>
        <mxCell id="sG7_oZuIjh9oJY-q4shb-25" value="" style="endArrow=none;html=1;rounded=0;exitX=0.5;exitY=0;exitDx=0;exitDy=0;entryX=0.5;entryY=1;entryDx=0;entryDy=0;" edge="1" parent="1" source="sG7_oZuIjh9oJY-q4shb-21" target="sG7_oZuIjh9oJY-q4shb-27">
          <mxGeometry width="50" height="50" relative="1" as="geometry">
            <mxPoint x="600" y="1010" as="sourcePoint" />
            <mxPoint x="410" y="840" as="targetPoint" />
          </mxGeometry>
        </mxCell>
        <mxCell id="sG7_oZuIjh9oJY-q4shb-26" value="&lt;span style=&quot;font-size: 18px;&quot;&gt;美食类型&lt;/span&gt;" style="ellipse;whiteSpace=wrap;html=1;" vertex="1" parent="1">
          <mxGeometry x="140" y="800" width="120" height="80" as="geometry" />
        </mxCell>
        <mxCell id="sG7_oZuIjh9oJY-q4shb-27" value="&lt;font style=&quot;font-size: 18px;&quot;&gt;美食图片&lt;/font&gt;" style="ellipse;whiteSpace=wrap;html=1;" vertex="1" parent="1">
          <mxGeometry x="260" y="720" width="120" height="80" as="geometry" />
        </mxCell>
        <mxCell id="sG7_oZuIjh9oJY-q4shb-28" value="&lt;span style=&quot;font-size: 18px;&quot;&gt;食材&lt;/span&gt;" style="ellipse;whiteSpace=wrap;html=1;" vertex="1" parent="1">
          <mxGeometry x="480" y="720" width="120" height="80" as="geometry" />
        </mxCell>
        <mxCell id="sG7_oZuIjh9oJY-q4shb-29" value="" style="endArrow=none;html=1;rounded=0;exitX=0.5;exitY=0;exitDx=0;exitDy=0;entryX=0.5;entryY=1;entryDx=0;entryDy=0;" edge="1" parent="1" source="sG7_oZuIjh9oJY-q4shb-21" target="sG7_oZuIjh9oJY-q4shb-28">
          <mxGeometry width="50" height="50" relative="1" as="geometry">
            <mxPoint x="420" y="1060" as="sourcePoint" />
            <mxPoint x="430" y="840" as="targetPoint" />
          </mxGeometry>
        </mxCell>
        <mxCell id="sG7_oZuIjh9oJY-q4shb-30" value="&lt;span style=&quot;font-size: 18px;&quot;&gt;烹饪步骤&lt;/span&gt;" style="ellipse;whiteSpace=wrap;html=1;" vertex="1" parent="1">
          <mxGeometry x="590" y="800" width="120" height="80" as="geometry" />
        </mxCell>
        <mxCell id="sG7_oZuIjh9oJY-q4shb-31" value="&lt;span style=&quot;font-size: 18px;&quot;&gt;视频&lt;/span&gt;" style="ellipse;whiteSpace=wrap;html=1;" vertex="1" parent="1">
          <mxGeometry x="640" y="890" width="120" height="80" as="geometry" />
        </mxCell>
        <mxCell id="sG7_oZuIjh9oJY-q4shb-32" value="" style="endArrow=none;html=1;rounded=0;exitX=0.5;exitY=0;exitDx=0;exitDy=0;entryX=0.5;entryY=1;entryDx=0;entryDy=0;" edge="1" parent="1" source="sG7_oZuIjh9oJY-q4shb-21" target="sG7_oZuIjh9oJY-q4shb-30">
          <mxGeometry width="50" height="50" relative="1" as="geometry">
            <mxPoint x="420" y="1060" as="sourcePoint" />
            <mxPoint x="484" y="800" as="targetPoint" />
          </mxGeometry>
        </mxCell>
        <mxCell id="sG7_oZuIjh9oJY-q4shb-33" value="" style="endArrow=none;html=1;rounded=0;exitX=0.5;exitY=0;exitDx=0;exitDy=0;entryX=0;entryY=1;entryDx=0;entryDy=0;" edge="1" parent="1" source="sG7_oZuIjh9oJY-q4shb-21" target="sG7_oZuIjh9oJY-q4shb-31">
          <mxGeometry width="50" height="50" relative="1" as="geometry">
            <mxPoint x="420" y="1060" as="sourcePoint" />
            <mxPoint x="560" y="810" as="targetPoint" />
          </mxGeometry>
        </mxCell>
        <mxCell id="sG7_oZuIjh9oJY-q4shb-34" value="&lt;font style=&quot;font-size: 18px;&quot;&gt;美食信息&lt;/font&gt;" style="rounded=0;whiteSpace=wrap;html=1;" vertex="1" parent="1">
          <mxGeometry x="350" y="1480" width="120" height="60" as="geometry" />
        </mxCell>
        <mxCell id="sG7_oZuIjh9oJY-q4shb-35" value="&lt;font style=&quot;font-size: 18px;&quot;&gt;美食名称&lt;/font&gt;" style="ellipse;whiteSpace=wrap;html=1;" vertex="1" parent="1">
          <mxGeometry x="40" y="1320" width="120" height="80" as="geometry" />
        </mxCell>
        <mxCell id="sG7_oZuIjh9oJY-q4shb-36" value="" style="endArrow=none;html=1;rounded=0;entryX=1;entryY=1;entryDx=0;entryDy=0;exitX=0.5;exitY=0;exitDx=0;exitDy=0;" edge="1" parent="1" source="sG7_oZuIjh9oJY-q4shb-34" target="sG7_oZuIjh9oJY-q4shb-35">
          <mxGeometry width="50" height="50" relative="1" as="geometry">
            <mxPoint x="410" y="1460" as="sourcePoint" />
            <mxPoint x="460" y="1410" as="targetPoint" />
          </mxGeometry>
        </mxCell>
        <mxCell id="sG7_oZuIjh9oJY-q4shb-37" value="" style="endArrow=none;html=1;rounded=0;entryX=0.5;entryY=1;entryDx=0;entryDy=0;exitX=0.5;exitY=0;exitDx=0;exitDy=0;" edge="1" parent="1" source="sG7_oZuIjh9oJY-q4shb-34" target="sG7_oZuIjh9oJY-q4shb-39">
          <mxGeometry width="50" height="50" relative="1" as="geometry">
            <mxPoint x="420" y="1490" as="sourcePoint" />
            <mxPoint x="320" y="1290" as="targetPoint" />
          </mxGeometry>
        </mxCell>
        <mxCell id="sG7_oZuIjh9oJY-q4shb-38" value="" style="endArrow=none;html=1;rounded=0;exitX=0.5;exitY=0;exitDx=0;exitDy=0;entryX=0.5;entryY=1;entryDx=0;entryDy=0;" edge="1" parent="1" source="sG7_oZuIjh9oJY-q4shb-34" target="sG7_oZuIjh9oJY-q4shb-40">
          <mxGeometry width="50" height="50" relative="1" as="geometry">
            <mxPoint x="600" y="1440" as="sourcePoint" />
            <mxPoint x="410" y="1270" as="targetPoint" />
          </mxGeometry>
        </mxCell>
        <mxCell id="sG7_oZuIjh9oJY-q4shb-39" value="&lt;span style=&quot;font-size: 18px;&quot;&gt;美食类型&lt;/span&gt;" style="ellipse;whiteSpace=wrap;html=1;" vertex="1" parent="1">
          <mxGeometry x="140" y="1230" width="120" height="80" as="geometry" />
        </mxCell>
        <mxCell id="sG7_oZuIjh9oJY-q4shb-40" value="&lt;font style=&quot;font-size: 18px;&quot;&gt;美食图片&lt;/font&gt;" style="ellipse;whiteSpace=wrap;html=1;" vertex="1" parent="1">
          <mxGeometry x="260" y="1150" width="120" height="80" as="geometry" />
        </mxCell>
        <mxCell id="sG7_oZuIjh9oJY-q4shb-41" value="&lt;span style=&quot;font-size: 18px;&quot;&gt;美食详情&lt;/span&gt;" style="ellipse;whiteSpace=wrap;html=1;" vertex="1" parent="1">
          <mxGeometry x="390" y="1150" width="120" height="80" as="geometry" />
        </mxCell>
        <mxCell id="sG7_oZuIjh9oJY-q4shb-42" value="" style="endArrow=none;html=1;rounded=0;exitX=0.5;exitY=0;exitDx=0;exitDy=0;entryX=0.5;entryY=1;entryDx=0;entryDy=0;" edge="1" parent="1" source="sG7_oZuIjh9oJY-q4shb-34" target="sG7_oZuIjh9oJY-q4shb-41">
          <mxGeometry width="50" height="50" relative="1" as="geometry">
            <mxPoint x="420" y="1490" as="sourcePoint" />
            <mxPoint x="430" y="1270" as="targetPoint" />
          </mxGeometry>
        </mxCell>
        <mxCell id="sG7_oZuIjh9oJY-q4shb-43" value="&lt;span style=&quot;font-size: 18px;&quot;&gt;点击次数&lt;/span&gt;" style="ellipse;whiteSpace=wrap;html=1;" vertex="1" parent="1">
          <mxGeometry x="560" y="1190" width="120" height="80" as="geometry" />
        </mxCell>
        <mxCell id="sG7_oZuIjh9oJY-q4shb-44" value="&lt;span style=&quot;font-size: 18px;&quot;&gt;收藏数量&lt;/span&gt;" style="ellipse;whiteSpace=wrap;html=1;" vertex="1" parent="1">
          <mxGeometry x="640" y="1320" width="120" height="80" as="geometry" />
        </mxCell>
        <mxCell id="sG7_oZuIjh9oJY-q4shb-45" value="" style="endArrow=none;html=1;rounded=0;exitX=0.5;exitY=0;exitDx=0;exitDy=0;entryX=0.5;entryY=1;entryDx=0;entryDy=0;" edge="1" parent="1" source="sG7_oZuIjh9oJY-q4shb-34" target="sG7_oZuIjh9oJY-q4shb-43">
          <mxGeometry width="50" height="50" relative="1" as="geometry">
            <mxPoint x="420" y="1490" as="sourcePoint" />
            <mxPoint x="484" y="1230" as="targetPoint" />
          </mxGeometry>
        </mxCell>
        <mxCell id="sG7_oZuIjh9oJY-q4shb-46" value="" style="endArrow=none;html=1;rounded=0;exitX=0.5;exitY=0;exitDx=0;exitDy=0;entryX=0;entryY=1;entryDx=0;entryDy=0;" edge="1" parent="1" source="sG7_oZuIjh9oJY-q4shb-34" target="sG7_oZuIjh9oJY-q4shb-44">
          <mxGeometry width="50" height="50" relative="1" as="geometry">
            <mxPoint x="420" y="1490" as="sourcePoint" />
            <mxPoint x="560" y="1240" as="targetPoint" />
          </mxGeometry>
        </mxCell>
        <mxCell id="sG7_oZuIjh9oJY-q4shb-47" value="&lt;font style=&quot;font-size: 18px;&quot;&gt;美食转发&lt;/font&gt;" style="rounded=0;whiteSpace=wrap;html=1;" vertex="1" parent="1">
          <mxGeometry x="360" y="1910" width="120" height="60" as="geometry" />
        </mxCell>
        <mxCell id="sG7_oZuIjh9oJY-q4shb-48" value="&lt;font style=&quot;font-size: 18px;&quot;&gt;美食名称&lt;/font&gt;" style="ellipse;whiteSpace=wrap;html=1;" vertex="1" parent="1">
          <mxGeometry x="30" y="1754" width="120" height="80" as="geometry" />
        </mxCell>
        <mxCell id="sG7_oZuIjh9oJY-q4shb-49" value="" style="endArrow=none;html=1;rounded=0;entryX=1;entryY=1;entryDx=0;entryDy=0;exitX=0.5;exitY=0;exitDx=0;exitDy=0;" edge="1" parent="1" source="sG7_oZuIjh9oJY-q4shb-47" target="sG7_oZuIjh9oJY-q4shb-48">
          <mxGeometry width="50" height="50" relative="1" as="geometry">
            <mxPoint x="420" y="1890" as="sourcePoint" />
            <mxPoint x="470" y="1840" as="targetPoint" />
          </mxGeometry>
        </mxCell>
        <mxCell id="sG7_oZuIjh9oJY-q4shb-50" value="" style="endArrow=none;html=1;rounded=0;entryX=0.5;entryY=1;entryDx=0;entryDy=0;exitX=0.5;exitY=0;exitDx=0;exitDy=0;" edge="1" parent="1" source="sG7_oZuIjh9oJY-q4shb-47" target="sG7_oZuIjh9oJY-q4shb-52">
          <mxGeometry width="50" height="50" relative="1" as="geometry">
            <mxPoint x="430" y="1920" as="sourcePoint" />
            <mxPoint x="330" y="1720" as="targetPoint" />
          </mxGeometry>
        </mxCell>
        <mxCell id="sG7_oZuIjh9oJY-q4shb-51" value="" style="endArrow=none;html=1;rounded=0;exitX=0.5;exitY=0;exitDx=0;exitDy=0;entryX=0.5;entryY=1;entryDx=0;entryDy=0;" edge="1" parent="1" source="sG7_oZuIjh9oJY-q4shb-47" target="sG7_oZuIjh9oJY-q4shb-53">
          <mxGeometry width="50" height="50" relative="1" as="geometry">
            <mxPoint x="610" y="1870" as="sourcePoint" />
            <mxPoint x="420" y="1700" as="targetPoint" />
          </mxGeometry>
        </mxCell>
        <mxCell id="sG7_oZuIjh9oJY-q4shb-52" value="&lt;span style=&quot;font-size: 18px;&quot;&gt;美食类型&lt;/span&gt;" style="ellipse;whiteSpace=wrap;html=1;" vertex="1" parent="1">
          <mxGeometry x="120" y="1670" width="120" height="80" as="geometry" />
        </mxCell>
        <mxCell id="sG7_oZuIjh9oJY-q4shb-53" value="&lt;font style=&quot;font-size: 18px;&quot;&gt;美食图片&lt;/font&gt;" style="ellipse;whiteSpace=wrap;html=1;" vertex="1" parent="1">
          <mxGeometry x="200" y="1600" width="120" height="80" as="geometry" />
        </mxCell>
        <mxCell id="sG7_oZuIjh9oJY-q4shb-54" value="&lt;span style=&quot;font-size: 18px;&quot;&gt;美食详情&lt;/span&gt;" style="ellipse;whiteSpace=wrap;html=1;" vertex="1" parent="1">
          <mxGeometry x="340" y="1570" width="120" height="80" as="geometry" />
        </mxCell>
        <mxCell id="sG7_oZuIjh9oJY-q4shb-55" value="" style="endArrow=none;html=1;rounded=0;exitX=0.5;exitY=0;exitDx=0;exitDy=0;entryX=0.5;entryY=1;entryDx=0;entryDy=0;" edge="1" parent="1" source="sG7_oZuIjh9oJY-q4shb-47" target="sG7_oZuIjh9oJY-q4shb-54">
          <mxGeometry width="50" height="50" relative="1" as="geometry">
            <mxPoint x="430" y="1920" as="sourcePoint" />
            <mxPoint x="440" y="1700" as="targetPoint" />
          </mxGeometry>
        </mxCell>
        <mxCell id="sG7_oZuIjh9oJY-q4shb-56" value="&lt;span style=&quot;font-size: 18px;&quot;&gt;用户账号&lt;/span&gt;" style="ellipse;whiteSpace=wrap;html=1;" vertex="1" parent="1">
          <mxGeometry x="480" y="1570" width="120" height="80" as="geometry" />
        </mxCell>
        <mxCell id="sG7_oZuIjh9oJY-q4shb-57" value="&lt;span style=&quot;font-size: 18px;&quot;&gt;用户姓名&lt;/span&gt;" style="ellipse;whiteSpace=wrap;html=1;" vertex="1" parent="1">
          <mxGeometry x="590" y="1640" width="120" height="80" as="geometry" />
        </mxCell>
        <mxCell id="sG7_oZuIjh9oJY-q4shb-58" value="" style="endArrow=none;html=1;rounded=0;exitX=0.5;exitY=0;exitDx=0;exitDy=0;entryX=0.5;entryY=1;entryDx=0;entryDy=0;" edge="1" parent="1" source="sG7_oZuIjh9oJY-q4shb-47" target="sG7_oZuIjh9oJY-q4shb-56">
          <mxGeometry width="50" height="50" relative="1" as="geometry">
            <mxPoint x="430" y="1920" as="sourcePoint" />
            <mxPoint x="494" y="1660" as="targetPoint" />
          </mxGeometry>
        </mxCell>
        <mxCell id="sG7_oZuIjh9oJY-q4shb-59" value="" style="endArrow=none;html=1;rounded=0;exitX=0.5;exitY=0;exitDx=0;exitDy=0;entryX=0;entryY=1;entryDx=0;entryDy=0;" edge="1" parent="1" source="sG7_oZuIjh9oJY-q4shb-47" target="sG7_oZuIjh9oJY-q4shb-57">
          <mxGeometry width="50" height="50" relative="1" as="geometry">
            <mxPoint x="430" y="1920" as="sourcePoint" />
            <mxPoint x="570" y="1670" as="targetPoint" />
          </mxGeometry>
        </mxCell>
        <mxCell id="sG7_oZuIjh9oJY-q4shb-60" value="&lt;span style=&quot;font-size: 18px;&quot;&gt;分享账号&lt;/span&gt;" style="ellipse;whiteSpace=wrap;html=1;" vertex="1" parent="1">
          <mxGeometry x="670" y="1730" width="120" height="80" as="geometry" />
        </mxCell>
        <mxCell id="sG7_oZuIjh9oJY-q4shb-61" value="" style="endArrow=none;html=1;rounded=0;exitX=0.5;exitY=0;exitDx=0;exitDy=0;entryX=0;entryY=1;entryDx=0;entryDy=0;" edge="1" parent="1" source="sG7_oZuIjh9oJY-q4shb-47" target="sG7_oZuIjh9oJY-q4shb-60">
          <mxGeometry width="50" height="50" relative="1" as="geometry">
            <mxPoint x="430" y="1920" as="sourcePoint" />
            <mxPoint x="618" y="1678" as="targetPoint" />
          </mxGeometry>
        </mxCell>
        <mxCell id="sG7_oZuIjh9oJY-q4shb-62" value="&lt;font style=&quot;font-size: 18px;&quot;&gt;用户&lt;/font&gt;" style="rounded=0;whiteSpace=wrap;html=1;" vertex="1" parent="1">
          <mxGeometry x="370" y="2430" width="120" height="60" as="geometry" />
        </mxCell>
        <mxCell id="sG7_oZuIjh9oJY-q4shb-65" value="" style="endArrow=none;html=1;rounded=0;entryX=0.5;entryY=1;entryDx=0;entryDy=0;exitX=0.5;exitY=0;exitDx=0;exitDy=0;" edge="1" parent="1" source="sG7_oZuIjh9oJY-q4shb-62" target="sG7_oZuIjh9oJY-q4shb-67">
          <mxGeometry width="50" height="50" relative="1" as="geometry">
            <mxPoint x="440" y="2440" as="sourcePoint" />
            <mxPoint x="340" y="2240" as="targetPoint" />
          </mxGeometry>
        </mxCell>
        <mxCell id="sG7_oZuIjh9oJY-q4shb-66" value="" style="endArrow=none;html=1;rounded=0;exitX=0.5;exitY=0;exitDx=0;exitDy=0;entryX=0.5;entryY=1;entryDx=0;entryDy=0;" edge="1" parent="1" source="sG7_oZuIjh9oJY-q4shb-62" target="sG7_oZuIjh9oJY-q4shb-68">
          <mxGeometry width="50" height="50" relative="1" as="geometry">
            <mxPoint x="620" y="2390" as="sourcePoint" />
            <mxPoint x="430" y="2220" as="targetPoint" />
          </mxGeometry>
        </mxCell>
        <mxCell id="sG7_oZuIjh9oJY-q4shb-67" value="&lt;span style=&quot;font-size: 18px;&quot;&gt;邮箱&lt;/span&gt;" style="ellipse;whiteSpace=wrap;html=1;" vertex="1" parent="1">
          <mxGeometry x="130" y="2190" width="120" height="80" as="geometry" />
        </mxCell>
        <mxCell id="sG7_oZuIjh9oJY-q4shb-68" value="&lt;font style=&quot;font-size: 18px;&quot;&gt;性别&lt;/font&gt;" style="ellipse;whiteSpace=wrap;html=1;" vertex="1" parent="1">
          <mxGeometry x="210" y="2120" width="120" height="80" as="geometry" />
        </mxCell>
        <mxCell id="sG7_oZuIjh9oJY-q4shb-69" value="&lt;span style=&quot;font-size: 18px;&quot;&gt;头像&lt;/span&gt;" style="ellipse;whiteSpace=wrap;html=1;" vertex="1" parent="1">
          <mxGeometry x="350" y="2090" width="120" height="80" as="geometry" />
        </mxCell>
        <mxCell id="sG7_oZuIjh9oJY-q4shb-70" value="" style="endArrow=none;html=1;rounded=0;exitX=0.5;exitY=0;exitDx=0;exitDy=0;entryX=0.5;entryY=1;entryDx=0;entryDy=0;" edge="1" parent="1" source="sG7_oZuIjh9oJY-q4shb-62" target="sG7_oZuIjh9oJY-q4shb-69">
          <mxGeometry width="50" height="50" relative="1" as="geometry">
            <mxPoint x="440" y="2440" as="sourcePoint" />
            <mxPoint x="450" y="2220" as="targetPoint" />
          </mxGeometry>
        </mxCell>
        <mxCell id="sG7_oZuIjh9oJY-q4shb-71" value="&lt;span style=&quot;font-size: 18px;&quot;&gt;用户账号&lt;/span&gt;" style="ellipse;whiteSpace=wrap;html=1;" vertex="1" parent="1">
          <mxGeometry x="490" y="2090" width="120" height="80" as="geometry" />
        </mxCell>
        <mxCell id="sG7_oZuIjh9oJY-q4shb-72" value="&lt;span style=&quot;font-size: 18px;&quot;&gt;用户姓名&lt;/span&gt;" style="ellipse;whiteSpace=wrap;html=1;" vertex="1" parent="1">
          <mxGeometry x="600" y="2160" width="120" height="80" as="geometry" />
        </mxCell>
        <mxCell id="sG7_oZuIjh9oJY-q4shb-73" value="" style="endArrow=none;html=1;rounded=0;exitX=0.5;exitY=0;exitDx=0;exitDy=0;entryX=0.5;entryY=1;entryDx=0;entryDy=0;" edge="1" parent="1" source="sG7_oZuIjh9oJY-q4shb-62" target="sG7_oZuIjh9oJY-q4shb-71">
          <mxGeometry width="50" height="50" relative="1" as="geometry">
            <mxPoint x="440" y="2440" as="sourcePoint" />
            <mxPoint x="504" y="2180" as="targetPoint" />
          </mxGeometry>
        </mxCell>
        <mxCell id="sG7_oZuIjh9oJY-q4shb-74" value="" style="endArrow=none;html=1;rounded=0;exitX=0.5;exitY=0;exitDx=0;exitDy=0;entryX=0;entryY=1;entryDx=0;entryDy=0;" edge="1" parent="1" source="sG7_oZuIjh9oJY-q4shb-62" target="sG7_oZuIjh9oJY-q4shb-72">
          <mxGeometry width="50" height="50" relative="1" as="geometry">
            <mxPoint x="440" y="2440" as="sourcePoint" />
            <mxPoint x="580" y="2190" as="targetPoint" />
          </mxGeometry>
        </mxCell>
        <mxCell id="sG7_oZuIjh9oJY-q4shb-75" value="&lt;span style=&quot;font-size: 18px;&quot;&gt;用户密码&lt;/span&gt;" style="ellipse;whiteSpace=wrap;html=1;" vertex="1" parent="1">
          <mxGeometry x="680" y="2250" width="120" height="80" as="geometry" />
        </mxCell>
        <mxCell id="sG7_oZuIjh9oJY-q4shb-76" value="" style="endArrow=none;html=1;rounded=0;exitX=0.5;exitY=0;exitDx=0;exitDy=0;entryX=0;entryY=1;entryDx=0;entryDy=0;" edge="1" parent="1" source="sG7_oZuIjh9oJY-q4shb-62" target="sG7_oZuIjh9oJY-q4shb-75">
          <mxGeometry width="50" height="50" relative="1" as="geometry">
            <mxPoint x="440" y="2440" as="sourcePoint" />
            <mxPoint x="628" y="2198" as="targetPoint" />
          </mxGeometry>
        </mxCell>
        <mxCell id="sG7_oZuIjh9oJY-q4shb-77" value="&lt;font style=&quot;font-size: 18px;&quot;&gt;管理员&lt;/font&gt;" style="rounded=0;whiteSpace=wrap;html=1;" vertex="1" parent="1">
          <mxGeometry x="335" y="2880" width="120" height="60" as="geometry" />
        </mxCell>
        <mxCell id="sG7_oZuIjh9oJY-q4shb-78" value="" style="endArrow=none;html=1;rounded=0;entryX=0.5;entryY=1;entryDx=0;entryDy=0;exitX=0.5;exitY=0;exitDx=0;exitDy=0;" edge="1" parent="1" source="sG7_oZuIjh9oJY-q4shb-77" target="sG7_oZuIjh9oJY-q4shb-80">
          <mxGeometry width="50" height="50" relative="1" as="geometry">
            <mxPoint x="405" y="2890" as="sourcePoint" />
            <mxPoint x="305" y="2690" as="targetPoint" />
          </mxGeometry>
        </mxCell>
        <mxCell id="sG7_oZuIjh9oJY-q4shb-79" value="" style="endArrow=none;html=1;rounded=0;exitX=0.5;exitY=0;exitDx=0;exitDy=0;entryX=0.5;entryY=1;entryDx=0;entryDy=0;" edge="1" parent="1" source="sG7_oZuIjh9oJY-q4shb-77" target="sG7_oZuIjh9oJY-q4shb-81">
          <mxGeometry width="50" height="50" relative="1" as="geometry">
            <mxPoint x="585" y="2840" as="sourcePoint" />
            <mxPoint x="395" y="2670" as="targetPoint" />
          </mxGeometry>
        </mxCell>
        <mxCell id="sG7_oZuIjh9oJY-q4shb-80" value="&lt;span style=&quot;font-size: 18px;&quot;&gt;用户名&lt;/span&gt;" style="ellipse;whiteSpace=wrap;html=1;" vertex="1" parent="1">
          <mxGeometry x="130" y="2640" width="120" height="80" as="geometry" />
        </mxCell>
        <mxCell id="sG7_oZuIjh9oJY-q4shb-81" value="&lt;font style=&quot;font-size: 18px;&quot;&gt;密码&lt;/font&gt;" style="ellipse;whiteSpace=wrap;html=1;" vertex="1" parent="1">
          <mxGeometry x="330" y="2630" width="120" height="80" as="geometry" />
        </mxCell>
        <mxCell id="sG7_oZuIjh9oJY-q4shb-82" value="&lt;span style=&quot;font-size: 18px;&quot;&gt;角色&lt;/span&gt;" style="ellipse;whiteSpace=wrap;html=1;" vertex="1" parent="1">
          <mxGeometry x="510" y="2640" width="120" height="80" as="geometry" />
        </mxCell>
        <mxCell id="sG7_oZuIjh9oJY-q4shb-83" value="" style="endArrow=none;html=1;rounded=0;exitX=0.5;exitY=0;exitDx=0;exitDy=0;entryX=0.5;entryY=1;entryDx=0;entryDy=0;" edge="1" parent="1" source="sG7_oZuIjh9oJY-q4shb-77" target="sG7_oZuIjh9oJY-q4shb-82">
          <mxGeometry width="50" height="50" relative="1" as="geometry">
            <mxPoint x="405" y="2890" as="sourcePoint" />
            <mxPoint x="415" y="2670" as="targetPoint" />
          </mxGeometry>
        </mxCell>
      </root>
    </mxGraphModel>
  </diagram>
</mxfile>
